inDegrees=yes
name=ik_S55_A04_T02
DataType=double
version=3
OpenSimVersion=4.3-2021-08-27-4bc7ad9
endheader
time	pelvis_tilt	pelvis_list	pelvis_rotation	pelvis_tx	pelvis_ty	pelvis_tz	hip_flexion_r	hip_adduction_r	hip_rotation_r	knee_angle_r	knee_angle_r_beta	ankle_angle_r	subtalar_angle_r	mtp_angle_r	hip_flexion_l	hip_adduction_l	hip_rotation_l	knee_angle_l	knee_angle_l_beta	ankle_angle_l	subtalar_angle_l	mtp_angle_l	lumbar_extension	lumbar_bending	lumbar_rotation	arm_flex_r	arm_add_r	arm_rot_r	elbow_flex_r	pro_sup_r	wrist_flex_r	wrist_dev_r	arm_flex_l	arm_add_l	arm_rot_l	elbow_flex_l	pro_sup_l	wrist_flex_l	wrist_dev_l
18.51999999999969	11.46979903337843	3.34006166182549	19.29777469994147	0	0.9399999999999999	0	59.51500268946177	2.795942168366618	-14.50482409722069	84.76051646478697	1.479350088001397	0	0	0	66.4469211420049	-17.69680926282877	2.851103080891215	96.59824610798729	1.685957446236176	0	0	0	0	0	0	30.6421211615586	-30.6421211615586	4.318306937558549	75.92058218490727	85.68169330482245	0	0	30.6421211615586	-30.6421211615586	4.318306937558549	75.92058218490727	85.68169330469573	0	0
18.53999999999969	12.32697640030698	3.979758016837213	19.25969845774751	0	0.9399999999999999	0	58.48242206322038	2.614878877604142	-14.2410209639039	84.77968845318722	1.479684702323135	0	0	0	65.35917668775505	-17.56385548510707	2.551113116704484	96.52958541526139	1.684759091081409	0	0	0	0	0	0	30.64425159280221	-30.64425159280221	4.318506021457281	75.92325703409436	85.681494220934	0	0	30.64425159280221	-30.64425159280221	4.318506021457281	75.92325703409436	85.68149422080732	0	0
18.55999999999969	12.45489359718788	4.108097286810389	19.23530357294306	0	0.9399999999999999	0	58.30426610046604	2.572427306595105	-14.1776245062975	84.41822655516739	1.473376002082182	0	0	0	66.07642774470597	-17.77834086480352	3.231761370374617	97.06608196646802	1.694122722325559	0	0	0	0	0	0	30.64733117358487	-30.64733117358487	4.318796666433077	75.92716310343576	85.68120357597326	0	0	30.64733117358487	-30.64733117358487	4.318796666433077	75.92716310343576	85.68120357584658	0	0
18.57999999999969	12.94974521136255	4.483063515595415	19.19460081480751	0	0.9399999999999999	0	57.74572779576806	2.48321455785569	-14.01512914879302	84.34494419245738	1.472096983569251	0	0	0	65.67789021825025	-17.82713846753017	3.291868394034055	97.13776684567195	1.695373859491562	0	0	0	0	0	0	30.64853690419415	-30.64853690419415	4.318909409911121	75.92867791299314	85.68109083250107	0	0	30.64853690419415	-30.64853690419415	4.318909409911121	75.92867791299314	85.68109083237441	0	0
18.59999999999969	13.55939449487644	4.992117164821912	19.11085017012315	0	0.9399999999999999	0	56.9983920410087	2.368627187890556	-13.78259187721461	84.1068981800302	1.467942296881154	0	0	0	64.85685940846321	-17.73632550850489	3.007396921528125	97.18554681728084	1.696207777312646	0	0	0	0	0	0	30.65027238084913	-30.65027238084913	4.319071057720197	75.93084956123619	85.6809291847003	0	0	30.65027238084913	-30.65027238084913	4.319071057720197	75.93084956123619	85.68092918457366	0	0
18.61999999999969	14.36768184795776	5.614948313569832	19.02524322263927	0	0.9399999999999999	0	56.02736097759828	2.205899335495875	-13.53886056417703	83.94927469422213	1.465191248075332	0	0	0	64.01311858474747	-17.96499559719491	3.241140244834469	97.16196390857969	1.695796177908614	0	0	0	0	0	0	30.65175072874285	-30.65175072874285	4.319209449585238	75.93270902627449	85.68079079284239	0	0	30.65175072874285	-30.65175072874285	4.319209449585238	75.93270902627449	85.68079079271574	0	0
18.63999999999969	15.15137896168405	6.241662216335494	18.89585136819472	0	0.9399999999999999	0	55.07364629592929	2.05946801534031	-13.25163795553172	83.76248638217199	1.461931177025815	0	0	0	62.98365734328642	-17.83512333785096	2.874596346096154	97.0443228295221	1.693742953743461	0	0	0	0	0	0	30.65331072723212	-30.65331072723212	4.319354536534084	75.93465809851763	85.680645705901	0	0	30.65331072723212	-30.65331072723212	4.319354536534084	75.93465809851763	85.6806457057744	0	0
18.65999999999969	15.88133248052811	6.7215182819735	18.75169957139443	0	0.9399999999999999	0	54.2196290159109	1.982370134122087	-13.04523279486613	83.72098974571655	1.461206924091164	0	0	0	62.37321570501346	-18.34686528627633	2.815249248458799	96.97385404181026	1.692513041378	0	0	0	0	0	0	30.6544992744715	-30.6544992744715	4.319466102122299	75.93615722043394	85.68053414031856	0	0	30.6544992744715	-30.6544992744715	4.319466102122299	75.93615722043394	85.68053414019195	0	0
18.67999999999969	16.50809479823901	7.026607497753538	18.68267113865393	0	0.9399999999999999	0	56.6397822766172	1.058478538457037	-12.33543319921173	86.74654391401596	1.514012806025427	0	0	0	61.61439476823658	-18.30732290661	2.703433758548631	96.65190756359891	1.686894015318012	0	0	0	0	0	0	30.69566210733852	-30.69566210733852	4.322817473402671	75.98100323776406	85.67718276920722	0	0	30.69566210733852	-30.69566210733852	4.322817473402671	75.98100323776406	85.67718276908128	0	0
18.69999999999969	16.81241570845256	7.139796402041924	18.69540644591805	0	0.9399999999999999	0	56.63654467310356	0.6784566633363492	-11.97395973054551	86.83459394757881	1.515549569017591	0	0	0	61.53157178644637	-18.49818339897663	2.701271968731263	96.76560826490595	1.688878466917646	0	0	0	0	0	0	30.69728060935103	-30.69728060935103	4.322969590632336	75.98304720388487	85.67703065198535	0	0	30.69728060935103	-30.69728060935103	4.322969590632336	75.98304720388487	85.67703065185951	0	0
